<svg xmlns="http://www.w3.org/2000/svg" viewBox="0 0 34.67 146.67"><defs><style>.cls-1{fill:#c39686;}.cls-2{fill:#b76e29;}</style></defs><title>Recurso 2 (2)</title><g id="Capa_2" data-name="Capa 2"><g id="Capa_1-2" data-name="Capa 1"><line class="cls-1" y1="143.62" x2="34.67" y2="143.62"/><path class="cls-1" d="M0,115.33v0Z"/><polygon class="cls-2" points="17.33 121.67 19.12 100.33 19.12 91 17.33 80 30.78 92.67 32.78 117.33 34.67 132.33 34.67 145.33 0 146.67 0 115.33 17.33 121.67"/><path class="cls-1" d="M0,115.33l17.33,6.34,1.12-13.36a12.71,12.71,0,0,0,1-4.31,13.1,13.1,0,0,0-.33-3.67,64.33,64.33,0,0,0,0-9.33,63.63,63.63,0,0,0-1.79-11l-1.88-4-1.33-8.33-1.67-8-2-9V28L9.23,16.67,7.78,6,0,0Z"/></g></g></svg>